<svg width="160" height="160" viewBox="0 0 160 160" fill="none" xmlns="http://www.w3.org/2000/svg">
<rect width="160" height="160" fill="black"/>
<path d="M90.3872 37.8872C85.768 39.8111 81.1352 41.6662 76.4888 43.4526C68.7971 46.4099 61.0675 49.1788 53.3013 51.7593C50.8687 52.943 50.0434 55.5439 50.6118 57.2446C51.7767 69.6351 52.4936 82.026 52.7642 94.4165C52.8092 94.8284 52.9064 94.9982 52.9985 95.145C53.0937 95.2871 53.2201 95.434 53.4341 95.5913C53.7535 95.8356 54.2653 95.9701 54.5669 95.938C54.8815 95.8946 55.014 95.882 55.4478 95.4771L90.4771 60.4478C103.266 46.2278 129.899 57.2597 128.887 76.3579V78.0933C128.887 89.1912 128.445 100.289 127.56 111.387C127.297 122.743 116.609 131.736 106.387 130.631C97.4589 129.516 88.5304 128.116 79.6021 126.428C74.6971 125.501 69.7921 124.487 64.8872 123.387C69.7921 122.287 74.6971 121.273 79.6021 120.346C88.5304 118.659 97.4589 117.258 106.387 116.143C108.949 115.35 109.789 112.815 109.214 111.387C108.33 100.289 107.887 89.1912 107.887 78.0933V76.3579C108.107 75.1253 106.043 74.2702 105.327 75.2974L70.2974 110.327C63.045 118.113 49.3981 119.01 41.0825 112.575C35.3715 108.584 31.7823 101.146 32.0103 94.4165C32.2808 82.026 32.9977 69.6351 34.1626 57.2446C34.5398 47.8279 42.3026 39.9741 50.813 39.187C58.9767 38.6147 67.1782 38.2312 75.4165 38.0356C80.3931 37.9175 85.3834 37.8679 90.3872 37.8872Z" fill="url(#paint0_linear_10_12)"/>
<path d="M107.5 24L108.951 29.8793C109.703 32.9219 112.078 35.2975 115.121 36.0486L121 37.5L115.121 38.9514C112.078 39.7025 109.703 42.0781 108.951 45.1207L107.5 51L106.049 45.1207C105.297 42.0781 102.922 39.7025 99.8793 38.9514L94 37.5L99.8793 36.0486C102.922 35.2975 105.297 32.9219 106.049 29.8793L107.5 24Z" fill="url(#paint1_linear_10_12)"/>
<defs>
<linearGradient id="paint0_linear_10_12" x1="86" y1="34.8872" x2="95.5" y2="169.887" gradientUnits="userSpaceOnUse">
<stop stop-color="#0055FF"/>
<stop offset="1" stop-color="#4581F8"/>
</linearGradient>
<linearGradient id="paint1_linear_10_12" x1="86" y1="34.8872" x2="95.5" y2="169.887" gradientUnits="userSpaceOnUse">
<stop stop-color="#0055FF"/>
<stop offset="1" stop-color="#4581F8"/>
</linearGradient>
</defs>
</svg>
